<?xml version="1.0" encoding="UTF-8" standalone="no"?>
<!-- Created with Inkscape (http://www.inkscape.org/) -->

<svg
   xmlns:dc="http://purl.org/dc/elements/1.1/"
   xmlns:cc="http://creativecommons.org/ns#"
   xmlns:rdf="http://www.w3.org/1999/02/22-rdf-syntax-ns#"
   xmlns:svg="http://www.w3.org/2000/svg"
   xmlns="http://www.w3.org/2000/svg"
   xmlns:sodipodi="http://sodipodi.sourceforge.net/DTD/sodipodi-0.dtd"
   xmlns:inkscape="http://www.inkscape.org/namespaces/inkscape"
   version="1.1"
   width="462"
   height="523.14148"
   id="svg3517"
   inkscape:version="0.48.3.1 r9886"
   sodipodi:docname="yang-panda.svg">
  <sodipodi:namedview
     pagecolor="#ffffff"
     bordercolor="#666666"
     borderopacity="1"
     objecttolerance="10"
     gridtolerance="10"
     guidetolerance="10"
     inkscape:pageopacity="0"
     inkscape:pageshadow="2"
     inkscape:window-width="640"
     inkscape:window-height="480"
     id="namedview28"
     showgrid="false"
     inkscape:zoom="0.50643777"
     inkscape:cx="231"
     inkscape:cy="261.57074"
     inkscape:window-x="0"
     inkscape:window-y="25"
     inkscape:window-maximized="0"
     inkscape:current-layer="svg3517"
     fit-margin-top="0"
     fit-margin-left="0"
     fit-margin-right="0"
     fit-margin-bottom="0" />
  <metadata
     id="metadata3533">
    <rdf:RDF>
      <cc:Work
         rdf:about="">
        <dc:format>image/svg+xml</dc:format>
        <dc:type
           rdf:resource="http://purl.org/dc/dcmitype/StillImage" />
        <dc:title />
      </cc:Work>
    </rdf:RDF>
  </metadata>
  <defs
     id="defs3531" />
  <g
     id="g3795"
     transform="translate(-2,59.141482)">
    <g
       id="g3587">
      <circle
         cx="233"
         cy="233"
         r="231"
         id="circle3519"
         sodipodi:cx="233"
         sodipodi:cy="233"
         sodipodi:rx="231"
         sodipodi:ry="231"
         d="M 464,233 C 464,360.57778 360.57778,464 233,464 105.42222,464 2,360.57778 2,233 2,105.42222 105.42222,2 233,2 360.57778,2 464,105.42222 464,233 z" />
      <path
         d="m 233,459 a 226,226 0 0 1 0,-452 113,113 0 0 1 0,226 z"
         id="path3521"
         style="fill:#ffffff"
         inkscape:connector-curvature="0" />
      <circle
         cx="233"
         cy="346"
         r="113"
         id="circle3523"
         style="fill:#000000"
         sodipodi:cx="233"
         sodipodi:cy="346"
         sodipodi:rx="113"
         sodipodi:ry="113"
         d="m 346,346 c 0,62.40818 -50.59182,113 -113,113 -62.40818,0 -113,-50.59182 -113,-113 0,-62.40818 50.59182,-113 113,-113 62.40818,0 113,50.59182 113,113 z" />
      <circle
         cx="233"
         cy="346"
         r="30"
         id="circle3527"
         style="fill:#ffffff"
         sodipodi:cx="233"
         sodipodi:cy="346"
         sodipodi:rx="30"
         sodipodi:ry="30"
         d="m 263,346 c 0,16.56854 -13.43146,30 -30,30 -16.56854,0 -30,-13.43146 -30,-30 0,-16.56854 13.43146,-30 30,-30 16.56854,0 30,13.43146 30,30 z" />
      <g
         transform="matrix(0.99963443,0,0,0.85239151,-1.9375917,1.7693857)"
         id="g3535">
        <g
           transform="matrix(1.6444702,0,0,1.5739594,579.41407,124.07555)"
           id="g3142">
          <path
             d="m -170.50906,-24.470825 c 0,10.509 -8.51787,19.02687 -19.02687,19.02687 -10.50807,0 -19.02687,-8.5188 -19.02687,-19.02687 0,-10.50807 8.5188,-19.02687 19.02687,-19.02687 10.509,-9.3e-4 19.02687,8.51787 19.02687,19.02687 z"
             id="path3179"
             style="fill:#ffffff;stroke:#000000;stroke-width:9.30000019;stroke-linecap:round;stroke-linejoin:round"
             inkscape:connector-curvature="0" />
          <path
             d="m -188.00329,-20.814995 c 0,3.3945 -2.75187,6.1473 -6.14637,6.1473 -3.3945,0 -6.1473,-2.75187 -6.1473,-6.1473 0,-3.39543 2.7528,-6.1473 6.1473,-6.1473 3.3945,0 6.14637,2.75187 6.14637,6.1473 l 0,0 z"
             id="path3183"
             inkscape:connector-curvature="0" />
          <path
             d="m -212.66131,-24.470825 c 0,10.509 -8.5188,19.02687 -19.02687,19.02687 -10.509,0 -19.02687,-8.5188 -19.02687,-19.02687 0,-10.50807 8.5188,-19.02687 19.02687,-19.02687 10.50807,-9.3e-4 19.02687,8.51787 19.02687,19.02687 z"
             id="path3177"
             style="fill:#ffffff;stroke:#000000;stroke-width:9.30000019;stroke-linecap:round;stroke-linejoin:round"
             inkscape:connector-curvature="0" />
          <path
             d="m -220.00738,-20.814995 c 0,3.3945 -2.75187,6.1473 -6.1473,6.1473 -3.3945,0 -6.1473,-2.75187 -6.1473,-6.1473 0,-3.39543 2.75187,-6.1473 6.1473,-6.1473 3.39543,0 6.1473,2.75187 6.1473,6.1473 l 0,0 z"
             id="path2515"
             inkscape:connector-curvature="0" />
          <path
             d="m -137.95441,-82.540025 c -10.71453,-11.0298 -36.80103,-12.32901 -45.59976,10.49877 l 0.55707,0.56265 c 15.53565,7.11822 26.19345,17.63931 32.95083,33.72831 l 0.71703,0.72726 c 23.62665,-10.69035 22.08843,-34.48719 11.37483,-45.51699 z"
             id="path73"
             inkscape:connector-curvature="0" />
          <path
             d="m -283.3534,-82.565135 c 10.71453,-11.0298 36.80103,-12.32901 45.59976,10.49877 l -0.55707,0.95046 c -15.53565,7.11822 -26.19345,17.2515 -32.95083,33.3405 l -0.71703,0.72726 c -23.62665,-10.69035 -22.08843,-34.48626 -11.37483,-45.51699 z"
             id="path77"
             inkscape:connector-curvature="0" />
        </g>
        <path
           d="m 192.10873,170.66524 c 13.36833,-12.48425 69.49413,-12.54035 81.99337,1.55968 11.86859,13.38865 -17.82592,51.49665 -40.99669,49.93471 -23.10129,-1.55519 -53.50337,-39.8158 -40.99668,-51.49439 z"
           id="path3192"
           inkscape:connector-curvature="0" />
      </g>
    </g>
    <path
       d="m 394.14354,4.6443076 c 0,-33.5311886 -26.8921,-60.7150796 -60.06791,-60.7150796 -25.41177,0 -47.12377,15.956746 -55.89775,38.493361 -18.09164,-7.975286 -38.04844,-12.427039 -59.03352,-12.427039 -20.97489,0 -40.89504,4.453811 -58.96631,12.427039 -8.77602,-22.536615 -30.48599,-38.493361 -55.89776,-38.493361 -33.173774,0 -60.067904,27.183891 -60.067904,60.7150796 0,25.9078454 16.06154,48.0143084 38.66336,56.7305274 -7.5319,17.91815 -11.73666,37.60218 -11.73666,58.284415 0,82.60338 66.284424,149.66576 148.005274,149.66576 81.72289,0 148.07043,-67.06238 148.07043,-149.66576 0,-20.682235 -4.20475,-40.366265 -11.73869,-58.284415 22.60589,-8.714161 38.66744,-30.820624 38.66744,-56.7305274 z"
       id="path57"
       style="fill:#ffffff;stroke:#000000;stroke-width:6.14141941"
       inkscape:connector-curvature="0" />
    <path
       d="m 306.98196,90.094095 c 0,23.256955 -18.64956,42.107445 -41.65861,42.107445 -23.00703,0 -41.65862,-18.85255 -41.65862,-42.107445 0,-23.25491 18.65159,-42.107453 41.65862,-42.107453 23.00905,-0.0021 41.65861,18.850493 41.65861,42.107453 z"
       id="path3179-4"
       style="fill:#ffffff;stroke:#000000;stroke-width:20.4713974;stroke-linecap:round;stroke-linejoin:round"
       inkscape:connector-curvature="0" />
    <path
       d="m 268.679,98.184635 c 0,7.512205 -6.02511,13.604285 -13.45724,13.604285 -7.43213,0 -13.45929,-6.09003 -13.45929,-13.604285 0,-7.51426 6.02716,-13.60429 13.45929,-13.60429 7.43213,0 13.45724,6.09003 13.45724,13.60429 l 0,0 z"
       id="path3183-5"
       inkscape:connector-curvature="0" />
    <path
       d="m 214.6912,90.094095 c 0,23.256955 -18.6516,42.107445 -41.65862,42.107445 -23.00906,0 -41.65862,-18.85255 -41.65862,-42.107445 0,-23.25491 18.6516,-42.107453 41.65862,-42.107453 23.00702,-0.0021 41.65862,18.850493 41.65862,42.107453 z"
       id="path3177-4"
       style="fill:#ffffff;stroke:#000000;stroke-width:20.4713974;stroke-linecap:round;stroke-linejoin:round"
       inkscape:connector-curvature="0" />
    <path
       d="m 198.60725,98.184635 c 0,7.512205 -6.02511,13.604285 -13.45928,13.604285 -7.43213,0 -13.45928,-6.09003 -13.45928,-13.604285 0,-7.51426 6.02511,-13.60429 13.45928,-13.60429 7.43417,0 13.45928,6.09003 13.45928,13.60429 l 0,0 z"
       id="path2515-8"
       inkscape:connector-curvature="0" />
    <path
       d="m 186.05204,180.11294 c 10.61879,-11.44942 55.20138,-11.50088 65.1299,1.43041 9.4276,12.27885 -14.15974,47.2281 -32.56495,45.79564 -18.35024,-1.42629 -42.49957,-36.5155 -32.56495,-47.22605 z"
       id="path3192-9"
       inkscape:connector-curvature="0" />
    <path
       d="m 378.25914,-38.416062 c -23.45906,-24.409519 -80.57447,-27.284739 -99.83896,23.234324 l 1.21969,1.245174 c 34.01471,15.7529896 57.34957,39.036709 72.1446,74.642499 l 1.56991,1.60947 c 51.72966,-23.658304 48.36178,-76.321946 24.90476,-100.731467 z"
       id="path73-0"
       inkscape:connector-curvature="0" />
    <path
       d="m 59.913516,-38.471632 c 23.45906,-24.409519 80.574474,-27.284738 99.838964,23.234324 l -1.21968,2.103418 C 124.51808,2.6190996 101.18323,25.044575 86.388196,60.650365 l -1.56991,1.60947 C 33.088626,38.601532 36.456496,-14.060053 59.913516,-38.471632 z"
       id="path77-8"
       inkscape:connector-curvature="0" />
  </g>
</svg>
